# xmcd
#
# Track frame offsets:
#	150
#	14367
#	35139
#	61191
#	83175
#	99837
#	114963
#	130260
#	147215
#	172020
#	183548
#	201760
#
# Disc length: 3658 seconds
#
# Revision: 0
# Processed by: cddbd v1.5.1PL0 Copyright (c) Steve Scherf et al.
# Submitted via: dBpowerAMP V4.0
#
DISCID=a00e480c
DTITLE=Jim McCarty Blues Band - Outside Woman Blues
DYEAR=2001
DGENRE=Blues
TTITLE0=Outside Woman Blues
TTITLE1=Walkin' Thru The Back Streets
TTITLE2=Black Hearted Woman
TTITLE3=Heavy Weather
TTITLE4=How Blue
TTITLE5=Framed
TTITLE6=Hearts Not In It
TTITLE7=Lawyers, Guns and Money
TTITLE8=Two Steps Ahead
TTITLE9=I Go Crazy
TTITLE10=No Easy Way Out
TTITLE11=Slow Driver
EXTD=on Mooreland Street Records label
EXTT0=
EXTT1=
EXTT2=
EXTT3=
EXTT4=
EXTT5=
EXTT6=
EXTT7=
EXTT8=
EXTT9=
EXTT10=
EXTT11=
PLAYORDER=
